#!OML:ASF E:/inclinewalkrobotboard/Project1/Captureday1/Session1/subject1.ASF
:FULLY-SPECIFIED
:DEGREES
163
root 0 0 0 85.62516039979184 -33.18814314013895 -56.10986612332392
lowerback -11.445176625734035 9.70997669487964 14.190659367081969
upperback -20.79001477064142 12.30900579341178 3.1265163161214753
thorax -15.223948030267106 4.232521666475235 -3.7837757835273234
lowerneck -8.948417545793982 11.970433263929996 6.242595104320873
upperneck 10.157383763984338 14.266386003289595 9.16059603561612
head 4.526145960843994 7.7220101943255335 2.7914839064456265
rclavicle 9.404335312261702E-15 7.861148759825669E-15
rhumerus 33.851179481925286 -50.1038595955218 -14.644015122033615
rradius 19.909924629291993
rwrist 40.37143782571211
rhand 0.5707912775946626 2.325237485834304
rfingers 7.125020000000066
rthumb 26.13777253470798 -25.863762367105313
lclavicle 8.599615039349379E-16 2.0471272285765497E-15
lhumerus -7.169809288074997 12.984809413069641 -4.222593413510992
lradius 20.905631939296825
lwrist -38.92214730166074
lhand 0.5155132169337795 34.35586614657837
lfingers 7.125020000000039
lthumb 26.054521261245053 62.48444833737965
rfemur 206.38800848557125 -182.71052763723225 -174.3016636198691
rtibia 56.749208982676194
rfoot 58.339398929578465 -31.02524891645412
rtoes 15.771801796124578
lfemur -54.308108839063976 25.557699389463856 21.300889595340564
ltibia 22.990425188088413
lfoot -66.10766837267643 8.913721219077848
ltoes 60.370345125494126
164
root 0 0 0 85.62124919288784 -33.186294639222304 -56.10693845754576
lowerback -11.443498478458118 9.710218548408816 14.194004973777943
upperback -20.79224172033708 12.309338556025097 3.127833403465705
thorax -15.227330010061642 4.23220455257625 -3.7835569157343985
lowerneck -8.94563243178461 11.971461585277961 6.241871842176614
upperneck 10.156660072560578 14.267967434301701 9.163573858466956
head 4.525178344692164 7.722792278726948 2.7924526686099784
rclavicle 9.417290570659879E-15 7.875748608509658E-15
rhumerus 33.81085649529641 -50.111113488419925 -14.591381814424679
rradius 19.908435734888833
rwrist 40.37797120673845
rhand 0.569505687350115 2.3244537816391873
rfingers 7.125020000000066
rthumb 26.13656759360279 -25.86517341535748
lclavicle 8.653002623807878E-16 2.0639345019064255E-15
lhumerus -7.204237298010002 12.987718225850806 -4.20664803471189
lradius 20.90390958245962
lwrist -38.93148417919676
lhand 0.5094944818560505 34.35171284172797
lfingers 7.125020000000039
lthumb 26.04883135971963 62.481469230432104
rfemur 206.38103310610535 -182.70531553389077 -174.29786550645926
rtibia 56.744361861794616
rfoot 58.328587905343255 -31.03100943705138
rtoes 15.774078509708822
lfemur -54.308224113376646 25.560133754922532 21.301448225877557
ltibia 22.99238504220842
lfoot -66.10357488870652 8.913240016908606
ltoes 60.37169509315537
165
root 0 0 0 85.61945360591233 -33.185653698690466 -56.10559620956482
lowerback -11.442719336516621 9.710313952333564 14.195572275658519
upperback -20.79323383519405 12.309469942039945 3.128446806463468
thorax -15.228847202402232 4.23204613931336 -3.783466554434111
lowerneck -8.944362720484571 11.97191223303936 6.241524812963969
upperneck 10.156396198406144 14.268659397002557 9.164941764963956
head 4.524759821554421 7.723134781166598 2.7929007107196373
rclavicle 9.428944010100329E-15 7.880951968850365E-15
rhumerus 33.78229974052395 -50.11398671281317 -14.560535765420262
rradius 19.909089495486704
rwrist 40.38045710922624
rhand 0.5677837227951978 2.325164519700052
rfingers 7.125020000000066
rthumb 26.13493696909196 -25.864988734634046
lclavicle 8.719083128569529E-16 2.0712122211648466E-15
lhumerus -7.227524217134573 12.98860202120517 -4.196994499575219
lradius 20.903316015150438
lwrist -38.935940251888404
lhand 0.5056970060601247 34.34929200662165
lfingers 7.125020000000039
lthumb 26.045225477595768 62.47971257352659
rfemur 206.37591930823913 -182.70169652443803 -174.29536950732145
rtibia 56.7416880775295
rfoot 58.32235125050981 -31.035459309889376
rtoes 15.774113441394842
lfemur -54.30749263830637 25.56132301917121 21.30189761442788
ltibia 22.99287023305324
lfoot -66.10096756077672 8.912396446722385
ltoes 60.372491841779414
166
root 0 0 0 85.63554689353757 -33.19718070673847 -56.11929738819601
lowerback -11.449826717934293 9.709186239453091 14.180375603896229
upperback -20.78158273284442 12.30810645194465 3.122416660137757
thorax -15.21208978628646 4.2336926729697675 -3.7846162740282434
lowerneck -8.958026159007082 11.966288161841494 6.244653547841146
upperneck 10.16374517514542 14.259984807344988 9.150509341631487
head 4.5310207788578305 7.718861635504089 2.7881800258738862
rclavicle 9.407336459473307E-15 7.846624443981957E-15
rhumerus 33.99815881628317 -50.063902405771756 -14.80737252055323
rradius 19.945370791535332
rwrist 40.36587453291142
rhand 0.5758466298225162 2.3323784156168283
rfingers 7.125020000000067
rthumb 26.143009400488303 -25.85432275616678
lclavicle 9.003967757004128E-16 2.022847527733211E-15
lhumerus -7.133345108645305 12.972475175344496 -4.2338166786999665
lradius 20.926492948724455
lwrist -38.87339403869679
lhand 0.5260546771939663 34.37282117489865
lfingers 7.125020000000039
lthumb 26.064232256172556 62.49885561253691
rfemur 206.41406288176185 -182.73409378084455 -174.32544613431327
rtibia 56.76984189813193
rfoot 58.362224900454535 -30.997995928033724
rtoes 15.756001333993888
lfemur -54.29892532148296 25.548025452723337 21.296207957479083
ltibia 22.976454444754904
lfoot -66.11810467196057 8.901697754768115
ltoes 60.36458517003431
